<svg width="104" height="104" viewBox="0 0 104 104" fill="none" xmlns="http://www.w3.org/2000/svg">
<rect width="104" height="104" rx="52" transform="matrix(-1 -8.74228e-08 -8.74228e-08 1 104 0)" fill="white" fill-opacity="0.4"/>
<path d="M71.6694 53.1093L43.4054 71.952C43.2046 72.0856 42.9713 72.1623 42.7304 72.1738C42.4895 72.1853 42.25 72.1313 42.0374 72.0175C41.8248 71.9036 41.647 71.7342 41.523 71.5274C41.399 71.3205 41.3335 71.0839 41.3334 70.8427L41.3334 33.1574C41.3335 32.9162 41.399 32.6795 41.523 32.4727C41.647 32.2658 41.8247 32.0964 42.0374 31.9826C42.25 31.8687 42.4895 31.8147 42.7304 31.8262C42.9713 31.8378 43.2046 31.9144 43.4054 32.048L71.6694 50.8907C71.852 51.0124 72.0017 51.1774 72.1053 51.3709C72.2088 51.5644 72.263 51.7805 72.263 52C72.263 52.2195 72.2088 52.4356 72.1053 52.6291C72.0017 52.8226 71.852 52.9876 71.6694 53.1093Z" fill="white"/>
</svg>
