<svg width="32" height="32" viewBox="0 0 32 32" fill="none" xmlns="http://www.w3.org/2000/svg">
<path d="M16 29.3333C8.63596 29.3333 2.66663 23.364 2.66663 16C2.66663 8.63599 8.63596 2.66666 16 2.66666C23.364 2.66666 29.3333 8.63599 29.3333 16C29.3333 23.364 23.364 29.3333 16 29.3333ZM16 26.6667C18.8289 26.6667 21.542 25.5429 23.5424 23.5425C25.5428 21.5421 26.6666 18.829 26.6666 16C26.6666 13.171 25.5428 10.4579 23.5424 8.45752C21.542 6.45713 18.8289 5.33332 16 5.33332C13.171 5.33332 10.4579 6.45713 8.45749 8.45752C6.4571 10.4579 5.33329 13.171 5.33329 16C5.33329 18.829 6.4571 21.5421 8.45749 23.5425C10.4579 25.5429 13.171 26.6667 16 26.6667ZM14.6666 20H17.3333V22.6667H14.6666V20ZM17.3333 17.8067V18.6667H14.6666V16.6667C14.6666 16.313 14.8071 15.9739 15.0572 15.7238C15.3072 15.4738 15.6463 15.3333 16 15.3333C16.3787 15.3333 16.7497 15.2257 17.0697 15.0231C17.3897 14.8205 17.6456 14.5311 17.8077 14.1888C17.9697 13.8464 18.0311 13.4651 17.9849 13.0891C17.9386 12.7132 17.7866 12.3581 17.5464 12.0652C17.3062 11.7723 16.9878 11.5536 16.6283 11.4346C16.2687 11.3156 15.8827 11.3011 15.5152 11.3929C15.1477 11.4847 14.8138 11.679 14.5524 11.9531C14.291 12.2272 14.1129 12.5699 14.0386 12.9413L11.4226 12.4173C11.5848 11.6068 11.9593 10.8538 12.5079 10.2354C13.0564 9.61706 13.7593 9.15543 14.5447 8.89775C15.3302 8.64007 16.1699 8.59557 16.9782 8.76881C17.7865 8.94205 18.5342 9.32681 19.1451 9.88376C19.7559 10.4407 20.2079 11.1499 20.4548 11.9387C20.7017 12.7276 20.7347 13.5679 20.5504 14.3737C20.3662 15.1796 19.9712 15.922 19.406 16.5251C18.8407 17.1283 18.1255 17.5705 17.3333 17.8067Z" fill="#2A1A80"/>
</svg>
