<svg width="1920" height="60" viewBox="0 0 1920 60" fill="none" xmlns="http://www.w3.org/2000/svg">
<g clip-path="url(#clip0_209_142)">
<rect width="1920" height="60" fill="black"/>
<g filter="url(#filter0_f_209_142)">
<ellipse cx="577.826" cy="16.1503" rx="679" ry="74" transform="rotate(-4.85065 577.826 16.1503)" fill="#2A1A80"/>
</g>
<path d="M695.856 35.24C692.408 35.24 690.48 32.792 690.48 29.24C690.48 25.688 692.408 23.24 695.856 23.24C699.304 23.24 701.232 25.688 701.232 29.24C701.232 32.792 699.304 35.24 695.856 35.24ZM695.856 33.88C698.432 33.896 699.72 32 699.72 29.24C699.72 26.48 698.432 24.616 695.856 24.6C693.28 24.584 692.008 26.48 691.992 29.24C691.976 32 693.28 33.864 695.856 33.88ZM707.895 38.6H706.599V35.16C704.071 35.56 702.039 33.864 702.039 30.688C702.039 27.512 704.071 25.8 706.599 26.2V23.568H707.895V26.2C710.423 25.8 712.455 27.512 712.455 30.688C712.455 33.864 710.423 35.56 707.895 35.16V38.6ZM706.599 33.856V27.512C704.871 27.224 703.503 28.304 703.503 30.688C703.503 33.072 704.911 34.136 706.599 33.856ZM707.895 27.512V33.856C709.583 34.136 710.991 33.096 710.991 30.688C710.991 28.28 709.623 27.224 707.895 27.512ZM717.582 35.24C714.998 35.24 713.422 33.352 713.422 30.672C713.422 27.96 715.046 26.12 717.582 26.12C720.174 26.12 721.75 28 721.75 30.672C721.75 33.384 720.15 35.24 717.582 35.24ZM717.582 33.888C719.366 33.888 720.238 32.576 720.238 30.672C720.238 28.728 719.35 27.472 717.582 27.472C715.774 27.472 714.934 28.784 714.934 30.672C714.934 32.624 715.838 33.888 717.582 33.888ZM727.167 26.12C729.567 26.12 731.031 28.08 731.031 30.672C731.031 33.264 729.575 35.24 727.159 35.24C726.087 35.24 725.231 34.856 724.615 34.2V38.84H723.183V26.36H724.455V27.328C725.087 26.568 725.991 26.12 727.167 26.12ZM726.983 33.936C728.687 33.936 729.519 32.512 729.519 30.672C729.519 28.848 728.703 27.424 726.943 27.424C725.255 27.424 724.455 28.76 724.455 30.672C724.455 32.568 725.239 33.936 726.983 33.936ZM733.833 35H732.457V26.36H733.681L736.961 33.064L740.241 26.36H741.465V35H740.089V29.328L737.337 35H736.585L733.833 29.328V35ZM749.283 26.36H750.451V35H749.075V28.632L744.547 35H743.371V26.36H744.747V32.64L749.283 26.36ZM756.084 35H754.66V27.656H751.652V26.36H759.092V27.656H756.084V35ZM767.958 31.08H761.334C761.446 32.872 762.374 33.888 763.966 33.888C765.102 33.888 765.966 33.352 766.446 32.368L767.814 32.84C767.134 34.368 765.702 35.24 764.03 35.24C761.478 35.24 759.806 33.44 759.806 30.736C759.806 27.904 761.454 26.12 763.966 26.12C766.566 26.12 768.086 28.008 767.958 31.08ZM764.014 27.4C762.462 27.4 761.558 28.296 761.358 29.936H766.478C766.302 28.24 765.478 27.4 764.014 27.4ZM777.639 30.48C778.367 30.88 778.719 31.704 778.719 32.536C778.719 34.232 777.247 35.24 775.399 35.24C773.687 35.24 772.335 34.464 771.583 33.152L772.719 32.416C773.343 33.368 774.223 33.888 775.343 33.888C776.511 33.888 777.263 33.32 777.263 32.392C777.263 31.376 776.455 31.128 775.127 31.128H774.231V29.952H775.119C776.239 29.952 777.015 29.632 777.015 28.752C777.015 27.864 776.255 27.464 775.351 27.464C774.391 27.464 773.471 27.912 772.847 28.52L771.983 27.552C772.871 26.64 774.055 26.12 775.439 26.12C777.103 26.12 778.479 27.024 778.479 28.64C778.479 29.392 778.191 30 777.639 30.48ZM786.794 27.808C787.034 28.344 787.074 28.976 787.074 29.656V35H785.81V33.656C785.122 34.712 784.05 35.24 782.61 35.24C780.674 35.24 779.674 34.056 779.674 32.664C779.674 31.304 780.482 30.512 781.794 30.128C782.874 29.84 784.394 29.656 785.674 29.48C785.634 28.104 785.042 27.448 783.546 27.448C782.498 27.448 781.658 27.904 781.346 28.96L779.994 28.552C780.402 27.04 781.61 26.12 783.562 26.12C785.122 26.12 786.298 26.68 786.794 27.808ZM782.826 34.048C784.362 34.048 785.306 33.128 785.514 32.056C785.634 31.64 785.65 31.088 785.658 30.696C784.442 30.856 783.274 30.992 782.434 31.232C781.722 31.456 781.09 31.848 781.09 32.656C781.09 33.368 781.594 34.048 782.826 34.048ZM795.594 26.36L795.602 35H794.17V31.872H792.306C792.186 31.872 792.066 31.872 791.938 31.864L789.89 35H788.354L790.514 31.688C789.426 31.368 788.618 30.536 788.618 29.144C788.618 27.664 789.522 26.752 790.714 26.48C791.242 26.36 791.834 26.36 792.226 26.36H795.594ZM792.202 30.696H794.17V27.536H792.202C791.954 27.536 791.506 27.544 791.146 27.648C790.634 27.8 790.082 28.296 790.082 29.128C790.082 29.928 790.586 30.432 791.234 30.6C791.578 30.688 791.946 30.696 792.202 30.696ZM801.618 35H797.522V26.36H801.202C801.634 26.36 802.186 26.408 802.602 26.52C803.522 26.776 804.202 27.56 804.202 28.72C804.202 29.376 803.986 29.848 803.634 30.192C803.466 30.36 803.266 30.488 803.082 30.56C803.258 30.592 803.466 30.672 803.65 30.776C804.25 31.112 804.626 31.696 804.626 32.616C804.626 33.792 804.026 34.576 803.034 34.856C802.618 34.976 802.082 35 801.618 35ZM798.962 27.536V30.096H801.106C801.394 30.096 801.762 30.064 802.01 29.968C802.49 29.792 802.722 29.328 802.722 28.824C802.722 28.28 802.466 27.824 801.962 27.656C801.61 27.536 801.098 27.536 800.986 27.536H798.962ZM798.962 31.272V33.84H801.538C801.762 33.84 802.114 33.8 802.362 33.728C802.914 33.576 803.154 33.08 803.154 32.568C803.154 31.888 802.73 31.448 802.122 31.336C801.89 31.272 801.602 31.272 801.41 31.272H798.962ZM807.353 35H805.905L805.913 26.36H807.353V30.52L810.977 26.36H812.825L809.009 30.68L813.273 35H811.281L807.353 30.84V35ZM814.365 26.36L817.061 33.16L819.589 26.36H821.037L816.333 38.84H814.949L816.373 34.968L812.869 26.36H814.365ZM826.338 35H824.914V26.36H831.994V35H830.57V27.712H826.338V35ZM837.89 26.12C840.29 26.12 841.754 28.08 841.754 30.672C841.754 33.264 840.298 35.24 837.882 35.24C836.81 35.24 835.954 34.856 835.338 34.2V38.84H833.906V26.36H835.178V27.328C835.81 26.568 836.714 26.12 837.89 26.12ZM837.706 33.936C839.41 33.936 840.242 32.512 840.242 30.672C840.242 28.848 839.426 27.424 837.666 27.424C835.978 27.424 835.178 28.76 835.178 30.672C835.178 32.568 835.962 33.936 837.706 33.936ZM849.948 26.36L849.956 35H848.524V31.872H846.66C846.54 31.872 846.42 31.872 846.292 31.864L844.244 35H842.708L844.868 31.688C843.78 31.368 842.972 30.536 842.972 29.144C842.972 27.664 843.876 26.752 845.068 26.48C845.596 26.36 846.188 26.36 846.58 26.36H849.948ZM846.556 30.696H848.524V27.536H846.556C846.308 27.536 845.86 27.544 845.5 27.648C844.988 27.8 844.436 28.296 844.436 29.128C844.436 29.928 844.94 30.432 845.588 30.6C845.932 30.688 846.3 30.696 846.556 30.696ZM853.252 35H851.876V26.36H853.1L856.38 33.064L859.66 26.36H860.884V35H859.508V29.328L856.756 35H856.004L853.252 29.328V35ZM866.478 35.24C863.894 35.24 862.318 33.352 862.318 30.672C862.318 27.96 863.942 26.12 866.478 26.12C869.07 26.12 870.646 28 870.646 30.672C870.646 33.384 869.046 35.24 866.478 35.24ZM866.478 33.888C868.262 33.888 869.134 32.576 869.134 30.672C869.134 28.728 868.246 27.472 866.478 27.472C864.67 27.472 863.83 28.784 863.83 30.672C863.83 32.624 864.734 33.888 866.478 33.888ZM878.611 35.24C875.979 35.24 874.515 33.328 874.491 30.68C874.515 27.984 876.027 26.12 878.627 26.12C880.443 26.12 881.851 27.08 882.307 28.632L880.899 29.056C880.531 28.056 879.659 27.472 878.611 27.472C876.835 27.472 876.019 28.808 876.003 30.68C876.019 32.608 876.891 33.888 878.611 33.888C879.731 33.888 880.475 33.36 880.867 32.376L882.307 32.752C881.699 34.368 880.395 35.24 878.611 35.24ZM891.291 31.08H884.667C884.779 32.872 885.707 33.888 887.299 33.888C888.435 33.888 889.299 33.352 889.779 32.368L891.147 32.84C890.467 34.368 889.035 35.24 887.363 35.24C884.811 35.24 883.139 33.44 883.139 30.736C883.139 27.904 884.787 26.12 887.299 26.12C889.899 26.12 891.419 28.008 891.291 31.08ZM887.347 27.4C885.795 27.4 884.891 28.296 884.691 29.936H889.811C889.635 28.24 888.811 27.4 887.347 27.4ZM896.473 25.352C895.265 25.352 894.289 24.376 894.289 23.168H895.441C895.441 23.736 895.905 24.2 896.473 24.2C897.049 24.2 897.505 23.736 897.505 23.168H898.657C898.657 24.376 897.681 25.352 896.473 25.352ZM898.657 26.36H899.825V35H898.449V28.632L893.921 35H892.745V26.36H894.121V32.64L898.657 26.36ZM908.377 35H906.945V31.888C906.361 32.184 905.513 32.408 904.593 32.408C902.833 32.408 901.729 31.6 901.409 30.112C901.265 29.448 901.265 28.6 901.265 28.328V26.36H902.705V28.328C902.705 28.648 902.713 29.136 902.801 29.56C903.009 30.624 903.665 31.152 904.905 31.152C905.729 31.152 906.457 30.92 906.945 30.568V26.36H908.377V35ZM916.94 27.808C917.18 28.344 917.22 28.976 917.22 29.656V35H915.956V33.656C915.268 34.712 914.196 35.24 912.756 35.24C910.82 35.24 909.82 34.056 909.82 32.664C909.82 31.304 910.628 30.512 911.94 30.128C913.02 29.84 914.54 29.656 915.82 29.48C915.78 28.104 915.188 27.448 913.692 27.448C912.644 27.448 911.804 27.904 911.492 28.96L910.14 28.552C910.548 27.04 911.756 26.12 913.708 26.12C915.268 26.12 916.444 26.68 916.94 27.808ZM912.972 34.048C914.508 34.048 915.452 33.128 915.66 32.056C915.78 31.64 915.796 31.088 915.804 30.696C914.588 30.856 913.42 30.992 912.58 31.232C911.868 31.456 911.236 31.848 911.236 32.656C911.236 33.368 911.74 34.048 912.972 34.048ZM922.62 35.24C919.988 35.24 918.524 33.328 918.5 30.68C918.524 27.984 920.036 26.12 922.636 26.12C924.452 26.12 925.86 27.08 926.316 28.632L924.908 29.056C924.54 28.056 923.668 27.472 922.62 27.472C920.844 27.472 920.028 28.808 920.012 30.68C920.028 32.608 920.9 33.888 922.62 33.888C923.74 33.888 924.484 33.36 924.876 32.376L926.316 32.752C925.708 34.368 924.404 35.24 922.62 35.24ZM926.98 37.28L927.708 33.192H929.108L927.924 37.28H926.98ZM940.236 26.36H941.404V35H940.028V28.632L935.5 35H934.324V26.36H935.7V32.64L940.236 26.36ZM947.624 35H946.2V26.36H953.28V35H951.856V27.712H947.624V35ZM958.881 35.24C956.297 35.24 954.721 33.352 954.721 30.672C954.721 27.96 956.345 26.12 958.881 26.12C961.473 26.12 963.049 28 963.049 30.672C963.049 33.384 961.449 35.24 958.881 35.24ZM958.881 33.888C960.665 33.888 961.537 32.576 961.537 30.672C961.537 28.728 960.649 27.472 958.881 27.472C957.073 27.472 956.233 28.784 956.233 30.672C956.233 32.624 957.137 33.888 958.881 33.888ZM963.69 35V33.776C964.65 33.952 964.834 33.472 965.002 32.504C965.266 30.992 965.426 28.928 965.578 26.36H971.618V35H970.194V27.712H966.874C966.73 29.688 966.522 31.968 966.282 33.176C965.978 34.752 965.434 35.36 963.69 35ZM974.161 26.36L976.857 33.16L979.385 26.36H980.833L976.129 38.84H974.745L976.169 34.968L972.665 26.36H974.161ZM988.466 35H987.034V31.888C986.45 32.184 985.602 32.408 984.682 32.408C982.922 32.408 981.818 31.6 981.498 30.112C981.354 29.448 981.354 28.6 981.354 28.328V26.36H982.794V28.328C982.794 28.648 982.802 29.136 982.89 29.56C983.098 30.624 983.754 31.152 984.994 31.152C985.818 31.152 986.546 30.92 987.034 30.568V26.36H988.466V35ZM996.293 26.36H997.461V35H996.085V28.632L991.557 35H990.381V26.36H991.757V32.64L996.293 26.36ZM1003.09 35H1001.67V27.656H998.662V26.36H1006.1V27.656H1003.09V35ZM1014.97 31.08H1008.34C1008.46 32.872 1009.38 33.888 1010.98 33.888C1012.11 33.888 1012.98 33.352 1013.46 32.368L1014.82 32.84C1014.14 34.368 1012.71 35.24 1011.04 35.24C1008.49 35.24 1006.82 33.44 1006.82 30.736C1006.82 27.904 1008.46 26.12 1010.98 26.12C1013.58 26.12 1015.1 28.008 1014.97 31.08ZM1011.02 27.4C1009.47 27.4 1008.57 28.296 1008.37 29.936H1013.49C1013.31 28.24 1012.49 27.4 1011.02 27.4ZM1022.95 35.24C1020.32 35.24 1018.86 33.328 1018.83 30.68C1018.86 27.984 1020.37 26.12 1022.97 26.12C1024.78 26.12 1026.19 27.08 1026.65 28.632L1025.24 29.056C1024.87 28.056 1024 27.472 1022.95 27.472C1021.18 27.472 1020.36 28.808 1020.34 30.68C1020.36 32.608 1021.23 33.888 1022.95 33.888C1024.07 33.888 1024.82 33.36 1025.21 32.376L1026.65 32.752C1026.04 34.368 1024.74 35.24 1022.95 35.24ZM1029.4 35H1027.95L1027.96 26.36H1029.4V30.52L1033.03 26.36H1034.87L1031.06 30.68L1035.32 35H1033.33L1029.4 30.84V35ZM1041.7 26.36H1042.87V35H1041.49V28.632L1036.97 35H1035.79V26.36H1037.17V32.64L1041.7 26.36ZM1045.51 36.92H1044.15V33.824C1045.11 33.824 1045.44 33.24 1045.69 31.776C1045.94 30.4 1046.05 28.824 1046.16 26.36H1052.11V33.824H1052.95V36.92H1051.59V35H1045.51V36.92ZM1046.34 33.824H1050.69V27.536H1047.45C1047.37 29.048 1047.25 30.968 1047.01 32.104C1046.87 32.912 1046.73 33.448 1046.34 33.824ZM1055.68 35H1054.23L1054.24 26.36H1055.68V30.52L1059.3 26.36H1061.15L1057.33 30.68L1061.6 35H1059.6L1055.68 30.84V35ZM1062.69 26.36L1065.38 33.16L1067.91 26.36H1069.36L1064.66 38.84H1063.27L1064.7 34.968L1061.19 26.36H1062.69ZM1076.7 35H1075.25V25.056L1073.08 26.368V24.776L1075.25 23.48H1076.7V35ZM1083.31 35.24C1081.07 35.24 1079.42 33.592 1079.42 31.352V27.128C1079.42 24.888 1081.07 23.24 1083.31 23.24C1085.55 23.24 1087.2 24.888 1087.2 27.128V31.352C1087.2 33.592 1085.55 35.24 1083.31 35.24ZM1083.31 33.872C1084.66 33.872 1085.75 32.784 1085.75 31.432V27.04C1085.75 25.688 1084.66 24.6 1083.31 24.6C1081.96 24.6 1080.87 25.688 1080.87 27.04V31.432C1080.87 32.784 1081.96 33.872 1083.31 33.872ZM1091.84 29C1090.26 29 1088.96 27.72 1088.96 26.12C1088.96 24.552 1090.3 23.24 1091.84 23.24C1093.42 23.24 1094.72 24.52 1094.72 26.12C1094.72 27.72 1093.42 29 1091.84 29ZM1100.98 24.44L1090.4 35L1089.44 34.04L1100.02 23.48L1100.98 24.44ZM1091.84 27.744C1092.72 27.744 1093.46 27 1093.46 26.12C1093.46 25.24 1092.72 24.496 1091.84 24.496C1090.96 24.496 1090.22 25.24 1090.22 26.12C1090.22 27 1090.96 27.744 1091.84 27.744ZM1098.58 35.24C1096.99 35.24 1095.7 33.96 1095.7 32.36C1095.7 30.792 1097.04 29.48 1098.58 29.48C1100.16 29.48 1101.46 30.76 1101.46 32.36C1101.46 33.96 1100.16 35.24 1098.58 35.24ZM1098.58 33.984C1099.46 33.984 1100.2 33.24 1100.2 32.36C1100.2 31.48 1099.46 30.736 1098.58 30.736C1097.7 30.736 1096.95 31.48 1096.95 32.36C1096.95 33.24 1097.7 33.984 1098.58 33.984ZM1107.52 35H1106.1V26.36H1107.52V30H1112.06V26.36H1113.49V35H1112.06V31.352H1107.52V35ZM1122.05 27.808C1122.29 28.344 1122.33 28.976 1122.33 29.656V35H1121.07V33.656C1120.38 34.712 1119.31 35.24 1117.87 35.24C1115.93 35.24 1114.93 34.056 1114.93 32.664C1114.93 31.304 1115.74 30.512 1117.05 30.128C1118.13 29.84 1119.65 29.656 1120.93 29.48C1120.89 28.104 1120.3 27.448 1118.8 27.448C1117.75 27.448 1116.91 27.904 1116.6 28.96L1115.25 28.552C1115.66 27.04 1116.87 26.12 1118.82 26.12C1120.38 26.12 1121.55 26.68 1122.05 27.808ZM1118.08 34.048C1119.62 34.048 1120.56 33.128 1120.77 32.056C1120.89 31.64 1120.91 31.088 1120.91 30.696C1119.7 30.856 1118.53 30.992 1117.69 31.232C1116.98 31.456 1116.35 31.848 1116.35 32.656C1116.35 33.368 1116.85 34.048 1118.08 34.048ZM1128.39 35H1126.97V26.36H1134.05V35H1132.62V27.712H1128.39V35ZM1143.64 31.08H1137.01C1137.13 32.872 1138.05 33.888 1139.65 33.888C1140.78 33.888 1141.65 33.352 1142.13 32.368L1143.49 32.84C1142.81 34.368 1141.38 35.24 1139.71 35.24C1137.16 35.24 1135.49 33.44 1135.49 30.736C1135.49 27.904 1137.13 26.12 1139.65 26.12C1142.25 26.12 1143.77 28.008 1143.64 31.08ZM1139.69 27.4C1138.14 27.4 1137.24 28.296 1137.04 29.936H1142.16C1141.98 28.24 1141.16 27.4 1139.69 27.4ZM1149.07 26.12C1151.47 26.12 1152.94 28.08 1152.94 30.672C1152.94 33.264 1151.48 35.24 1149.07 35.24C1147.99 35.24 1147.14 34.856 1146.52 34.2V38.84H1145.09V26.36H1146.36V27.328C1146.99 26.568 1147.9 26.12 1149.07 26.12ZM1148.89 33.936C1150.59 33.936 1151.43 32.512 1151.43 30.672C1151.43 28.848 1150.61 27.424 1148.85 27.424C1147.16 27.424 1146.36 28.76 1146.36 30.672C1146.36 32.568 1147.15 33.936 1148.89 33.936ZM1158.46 35H1154.36V26.36H1158.04C1158.48 26.36 1159.03 26.408 1159.44 26.52C1160.36 26.776 1161.04 27.56 1161.04 28.72C1161.04 29.376 1160.83 29.848 1160.48 30.192C1160.31 30.36 1160.11 30.488 1159.92 30.56C1160.1 30.592 1160.31 30.672 1160.49 30.776C1161.09 31.112 1161.47 31.696 1161.47 32.616C1161.47 33.792 1160.87 34.576 1159.88 34.856C1159.46 34.976 1158.92 35 1158.46 35ZM1155.8 27.536V30.096H1157.95C1158.24 30.096 1158.6 30.064 1158.85 29.968C1159.33 29.792 1159.56 29.328 1159.56 28.824C1159.56 28.28 1159.31 27.824 1158.8 27.656C1158.45 27.536 1157.94 27.536 1157.83 27.536H1155.8ZM1155.8 31.272V33.84H1158.38C1158.6 33.84 1158.96 33.8 1159.2 33.728C1159.76 33.576 1160 33.08 1160 32.568C1160 31.888 1159.57 31.448 1158.96 31.336C1158.73 31.272 1158.44 31.272 1158.25 31.272H1155.8ZM1165.58 35H1162.76L1162.75 26.36H1164.18V29.488H1165.5C1166 29.488 1166.56 29.504 1166.95 29.576C1168.28 29.848 1169.19 30.632 1169.19 32.248C1169.19 33.744 1168.34 34.608 1167.09 34.888C1166.66 34.984 1166.07 35 1165.58 35ZM1171.6 26.36V35H1170.18V26.36H1171.6ZM1164.18 30.664V33.824H1165.6C1165.92 33.824 1166.35 33.816 1166.67 33.728C1167.2 33.576 1167.72 33.128 1167.72 32.248C1167.72 31.368 1167.25 30.904 1166.58 30.752C1166.27 30.68 1165.91 30.664 1165.6 30.664H1164.18ZM1177.25 25.352C1176.04 25.352 1175.07 24.376 1175.07 23.168H1176.22C1176.22 23.736 1176.68 24.2 1177.25 24.2C1177.83 24.2 1178.28 23.736 1178.28 23.168H1179.43C1179.43 24.376 1178.46 25.352 1177.25 25.352ZM1179.43 26.36H1180.6V35H1179.23V28.632L1174.7 35H1173.52V26.36H1174.9V32.64L1179.43 26.36ZM1190.74 30.48C1191.47 30.88 1191.82 31.704 1191.82 32.536C1191.82 34.232 1190.35 35.24 1188.5 35.24C1186.79 35.24 1185.44 34.464 1184.69 33.152L1185.82 32.416C1186.45 33.368 1187.33 33.888 1188.45 33.888C1189.61 33.888 1190.37 33.32 1190.37 32.392C1190.37 31.376 1189.56 31.128 1188.23 31.128H1187.33V29.952H1188.22C1189.34 29.952 1190.12 29.632 1190.12 28.752C1190.12 27.864 1189.36 27.464 1188.45 27.464C1187.49 27.464 1186.57 27.912 1185.95 28.52L1185.09 27.552C1185.97 26.64 1187.16 26.12 1188.54 26.12C1190.21 26.12 1191.58 27.024 1191.58 28.64C1191.58 29.392 1191.29 30 1190.74 30.48ZM1199.9 27.808C1200.14 28.344 1200.18 28.976 1200.18 29.656V35H1198.91V33.656C1198.22 34.712 1197.15 35.24 1195.71 35.24C1193.78 35.24 1192.78 34.056 1192.78 32.664C1192.78 31.304 1193.58 30.512 1194.9 30.128C1195.98 29.84 1197.5 29.656 1198.78 29.48C1198.74 28.104 1198.14 27.448 1196.65 27.448C1195.6 27.448 1194.76 27.904 1194.45 28.96L1193.1 28.552C1193.5 27.04 1194.71 26.12 1196.66 26.12C1198.22 26.12 1199.4 26.68 1199.9 27.808ZM1195.93 34.048C1197.46 34.048 1198.41 33.128 1198.62 32.056C1198.74 31.64 1198.75 31.088 1198.76 30.696C1197.54 30.856 1196.38 30.992 1195.54 31.232C1194.82 31.456 1194.19 31.848 1194.19 32.656C1194.19 33.368 1194.7 34.048 1195.93 34.048ZM1203.38 35H1201.93L1201.94 26.36H1203.38V30.52L1207 26.36H1208.85L1205.03 30.68L1209.3 35H1207.3L1203.38 30.84V35ZM1216.41 27.808C1216.65 28.344 1216.69 28.976 1216.69 29.656V35H1215.43V33.656C1214.74 34.712 1213.67 35.24 1212.23 35.24C1210.29 35.24 1209.29 34.056 1209.29 32.664C1209.29 31.304 1210.1 30.512 1211.41 30.128C1212.49 29.84 1214.01 29.656 1215.29 29.48C1215.25 28.104 1214.66 27.448 1213.17 27.448C1212.12 27.448 1211.28 27.904 1210.97 28.96L1209.61 28.552C1210.02 27.04 1211.23 26.12 1213.18 26.12C1214.74 26.12 1215.92 26.68 1216.41 27.808ZM1212.45 34.048C1213.98 34.048 1214.93 33.128 1215.13 32.056C1215.25 31.64 1215.27 31.088 1215.28 30.696C1214.06 30.856 1212.89 30.992 1212.05 31.232C1211.34 31.456 1210.71 31.848 1210.71 32.656C1210.71 33.368 1211.21 34.048 1212.45 34.048ZM1223.79 30.48C1224.52 30.88 1224.87 31.704 1224.87 32.536C1224.87 34.232 1223.4 35.24 1221.55 35.24C1219.84 35.24 1218.49 34.464 1217.73 33.152L1218.87 32.416C1219.49 33.368 1220.37 33.888 1221.49 33.888C1222.66 33.888 1223.41 33.32 1223.41 32.392C1223.41 31.376 1222.61 31.128 1221.28 31.128H1220.38V29.952H1221.27C1222.39 29.952 1223.17 29.632 1223.17 28.752C1223.17 27.864 1222.41 27.464 1221.5 27.464C1220.54 27.464 1219.62 27.912 1219 28.52L1218.13 27.552C1219.02 26.64 1220.21 26.12 1221.59 26.12C1223.25 26.12 1224.63 27.024 1224.63 28.64C1224.63 29.392 1224.34 30 1223.79 30.48ZM1228.53 23.48V31.88H1227.1V23.48H1228.53ZM1227.82 35.112C1227.29 35.112 1226.89 34.704 1226.89 34.184C1226.89 33.664 1227.29 33.256 1227.82 33.256C1228.35 33.256 1228.75 33.664 1228.75 34.184C1228.75 34.704 1228.35 35.112 1227.82 35.112Z" fill="white"/>
<path opacity="0.6" d="M1277.67 36.27C1273.78 36.27 1271.54 33.525 1271.54 29.52C1271.54 25.515 1273.78 22.77 1277.67 22.77C1281.55 22.77 1283.79 25.515 1283.79 29.52C1283.79 33.525 1281.55 36.27 1277.67 36.27ZM1277.67 34.479C1280.42 34.506 1281.79 32.49 1281.79 29.52C1281.79 26.55 1280.42 24.579 1277.67 24.561C1274.92 24.534 1273.55 26.55 1273.54 29.52C1273.53 32.49 1274.92 34.461 1277.67 34.479ZM1291.82 36H1289.95V34.191C1287.29 34.641 1284.86 32.805 1284.86 29.142C1284.86 25.479 1287.29 23.58 1289.95 24.03V23.04H1291.82V24.03C1294.49 23.58 1296.92 25.479 1296.92 29.142C1296.92 32.805 1294.49 34.641 1291.82 34.191V36ZM1289.95 32.445V25.749C1287.77 25.425 1286.79 27.162 1286.79 29.142C1286.79 31.122 1287.77 32.769 1289.95 32.445ZM1291.82 25.749V32.445C1293.98 32.769 1294.99 31.113 1294.99 29.187C1294.99 27.27 1293.98 25.425 1291.82 25.749ZM1304.12 36.27C1300.24 36.27 1298 33.525 1298 29.52C1298 25.515 1300.24 22.77 1304.12 22.77C1308 22.77 1310.24 25.515 1310.24 29.52C1310.24 33.525 1308 36.27 1304.12 36.27ZM1304.12 34.479C1306.88 34.506 1308.25 32.49 1308.25 29.52C1308.25 26.55 1306.88 24.579 1304.12 24.561C1301.37 24.534 1300 26.55 1299.99 29.52C1299.98 32.49 1301.37 34.461 1304.12 34.479ZM1313.92 36H1312.04V23.04H1317.28C1317.53 23.04 1317.93 23.058 1318.28 23.112C1320.45 23.445 1321.53 25.092 1321.53 27.189C1321.53 29.295 1320.44 30.933 1318.28 31.275C1317.93 31.329 1317.52 31.347 1317.28 31.347H1313.92V36ZM1313.92 24.813V29.565H1317.21C1317.44 29.565 1317.75 29.547 1318.02 29.484C1319.18 29.205 1319.61 28.143 1319.61 27.189C1319.61 26.235 1319.18 25.173 1318.02 24.903C1317.75 24.831 1317.44 24.813 1317.21 24.813H1313.92ZM1325.1 36H1323.32V23.04H1325.03L1329.72 32.787L1334.39 23.04H1336.11V35.991H1334.33V27.126L1330.15 36H1329.29L1325.1 27.126V36ZM1348.83 36H1346.92V26.361L1340.54 36H1338.64V23.04H1340.54V32.67L1346.92 23.04H1348.83V36ZM1356.47 36H1354.59V24.813H1350.28V23.04H1360.78V24.813H1356.47V36ZM1367.45 36H1362.22V23.04H1364.1V27.693H1367.45C1367.69 27.693 1368.11 27.711 1368.44 27.765C1370.6 28.107 1371.7 29.745 1371.7 31.851C1371.7 33.948 1370.62 35.595 1368.44 35.928C1368.11 35.982 1367.71 36 1367.45 36ZM1367.38 29.475H1364.1V34.227H1367.38C1367.62 34.227 1367.93 34.209 1368.19 34.137C1369.35 33.867 1369.78 32.805 1369.78 31.851C1369.78 30.897 1369.35 29.835 1368.19 29.556C1367.93 29.493 1367.62 29.475 1367.38 29.475Z" fill="white"/>
</g>
<defs>
<filter id="filter0_f_209_142" x="-298.772" y="-277.306" width="1753.2" height="586.913" filterUnits="userSpaceOnUse" color-interpolation-filters="sRGB">
<feFlood flood-opacity="0" result="BackgroundImageFix"/>
<feBlend mode="normal" in="SourceGraphic" in2="BackgroundImageFix" result="shape"/>
<feGaussianBlur stdDeviation="100" result="effect1_foregroundBlur_209_142"/>
</filter>
<clipPath id="clip0_209_142">
<rect width="1920" height="60" fill="white"/>
</clipPath>
</defs>
</svg>
