<svg width="34" height="38" viewBox="0 0 34 38" fill="none" xmlns="http://www.w3.org/2000/svg">
<path d="M26.0063 1.27336C19.9079 0.108748 13.5749 0.108748 7.47644 1.27336C4.77905 1.85567 1.37801 5.1166 0.791623 7.67875C-0.263874 12.6866 -0.263874 17.8109 0.791623 22.8188C1.49529 25.3809 4.89633 28.6418 7.47644 29.2241C7.59371 29.2241 7.71099 29.3406 7.71099 29.4571V36.7941C7.71099 37.1435 8.18011 37.3765 8.41466 37.0271L11.933 33.4168C11.933 33.4168 14.7476 30.5052 15.2168 30.0394C15.2168 30.0394 15.334 29.9229 15.4513 29.9229C18.9696 30.0394 22.6052 29.69 26.1236 29.1077C28.8209 28.5254 32.222 25.2645 32.8084 22.7023C33.8639 17.6944 33.8639 12.5701 32.8084 7.56229C32.1047 5.1166 28.7037 1.85567 26.0063 1.27336ZM26.1236 23.1681C25.5372 24.3328 24.8335 25.2645 23.6607 25.8468C23.3089 25.9632 22.9571 26.0797 22.6052 26.1961C22.1361 26.0797 21.7843 25.9632 21.4325 25.8468C17.6796 24.3328 14.1613 22.2365 11.3466 19.2085C9.82199 17.4615 8.53193 15.4817 7.47644 13.3854C7.00733 12.3372 6.53822 11.4055 6.18639 10.3574C5.83455 9.42568 6.42094 8.49398 7.00733 7.79521C7.59371 7.09644 8.29738 6.6306 9.11832 6.28121C9.70471 5.93183 10.2911 6.16475 10.7602 6.6306C11.6984 7.79521 12.6366 8.95983 13.3403 10.2409C13.8094 11.0561 13.6921 11.9878 12.8712 12.5701C12.6366 12.6866 12.5194 12.8031 12.2848 13.036C12.1675 13.1524 11.933 13.2689 11.8157 13.5018C11.5811 13.8512 11.5811 14.2006 11.6984 14.55C12.6366 17.2286 14.3958 19.3249 17.0932 20.4895C17.5623 20.7224 17.9141 20.8389 18.5005 20.8389C19.3215 20.7225 19.6733 19.7908 20.2597 19.3249C20.8461 18.8591 21.5497 18.8591 22.2534 19.2085C22.8398 19.5578 23.4262 20.0237 24.1298 20.4895C24.7162 20.9554 25.3026 21.3048 25.889 21.7706C26.2408 22.0035 26.3581 22.5858 26.1236 23.1681ZM21.1979 14.4335C20.9633 14.4335 21.0806 14.4335 21.1979 14.4335C20.7288 14.4335 20.6115 14.2006 20.4942 13.8512C20.4942 13.6183 20.4942 13.2689 20.377 13.036C20.2597 12.5701 20.0251 12.1043 19.556 11.7549C19.3215 11.6384 19.0869 11.522 18.8524 11.4055C18.5005 11.2891 18.266 11.2891 17.9141 11.2891C17.5623 11.1726 17.445 10.9397 17.445 10.5903C17.445 10.3574 17.7969 10.1244 18.0314 10.1244C19.9079 10.2409 21.3152 11.2891 21.5497 13.5018C21.5497 13.6183 21.5497 13.8512 21.5497 13.9677C21.5497 14.2006 21.4325 14.4335 21.1979 14.4335ZM20.0251 9.30921C19.4387 9.07629 18.8524 8.84337 18.1487 8.72691C17.9141 8.72691 17.5623 8.61044 17.3277 8.61044C16.9759 8.61044 16.7414 8.37752 16.8586 8.02814C16.8586 7.67875 17.0932 7.44583 17.445 7.56229C18.6178 7.67875 19.6733 7.91168 20.7288 8.37752C22.8398 9.42568 24.0126 11.1726 24.3644 13.5018C24.3644 13.6183 24.3644 13.7348 24.3644 13.8512C24.3644 14.0841 24.3644 14.3171 24.3644 14.6664C24.3644 14.7829 24.3644 14.8994 24.3644 15.0158C24.2471 15.4817 23.4262 15.5981 23.3089 15.0158C23.3089 14.8994 23.1916 14.6664 23.1916 14.55C23.1916 13.5018 22.9571 12.4537 22.488 11.522C21.7843 10.4738 20.9633 9.77506 20.0251 9.30921ZM26.3581 16.2969C26.0063 16.2969 25.7717 15.9475 25.7717 15.5981C25.7717 14.8994 25.6545 14.2006 25.5372 13.5018C25.0681 9.77506 22.0189 6.74706 18.3832 6.16475C17.7969 6.04829 17.2105 6.04829 16.7414 5.93183C16.3895 5.93183 15.9204 5.93183 15.8031 5.46598C15.6859 5.1166 16.0377 4.76721 16.3895 4.76721C16.5068 4.76721 16.6241 4.76721 16.6241 4.76721C21.4325 4.88367 16.8586 4.76721 16.6241 4.76721C21.5497 4.88367 25.6544 8.1446 26.4754 13.036C26.5927 13.8512 26.7099 14.6664 26.7099 15.5981C26.9445 15.9475 26.7099 16.2969 26.3581 16.2969Z" fill="white"/>
</svg>
