<svg width="34" height="34" viewBox="0 0 34 34" fill="none" xmlns="http://www.w3.org/2000/svg">
<path d="M28.6829 5.2999C25.5219 2.1499 21.3073 0.399902 16.8585 0.399902C7.60975 0.399902 0.117071 7.86657 0.117071 17.0832C0.117071 19.9999 0.936585 22.9166 2.34146 25.3666L0 33.9999L8.89756 31.6666C11.3561 32.9499 14.0488 33.6499 16.8585 33.6499C26.1073 33.6499 33.6 26.1832 33.6 16.9666C33.4829 12.6499 31.8439 8.4499 28.6829 5.2999ZM24.9366 23.0332C24.5854 23.9666 22.9463 24.8999 22.1268 25.0166C21.4244 25.1332 20.4878 25.1332 19.5512 24.8999C18.9659 24.6666 18.1463 24.4332 17.2098 23.9666C12.9951 22.2166 10.3024 18.0166 10.0683 17.6666C9.83415 17.4332 8.3122 15.4499 8.3122 13.3499C8.3122 11.2499 9.36585 10.3166 9.71707 9.8499C10.0683 9.38323 10.5366 9.38323 10.8878 9.38323C11.1219 9.38323 11.4732 9.38323 11.7073 9.38323C11.9415 9.38323 12.2927 9.26657 12.6439 10.0832C12.9951 10.8999 13.8146 12.9999 13.9317 13.1166C14.0488 13.3499 14.0488 13.5832 13.9317 13.8166C13.8146 14.0499 13.6976 14.2832 13.4634 14.5166C13.2293 14.7499 12.9951 15.0999 12.878 15.2166C12.6439 15.4499 12.4098 15.6832 12.6439 16.0332C12.878 16.4999 13.6976 17.7832 14.9854 18.9499C16.6244 20.3499 17.9122 20.8166 18.3805 21.0499C18.8488 21.2832 19.0829 21.1666 19.3171 20.9332C19.5512 20.6999 20.3707 19.7666 20.6049 19.2999C20.839 18.8332 21.1902 18.9499 21.5415 19.0666C21.8927 19.1832 24 20.2332 24.3512 20.4666C24.8195 20.6999 25.0537 20.8166 25.1707 20.9332C25.2878 21.2832 25.2878 22.0999 24.9366 23.0332Z" fill="white"/>
</svg>
